# xmcd
#
# Track frame offsets:
#	150
#	16565
#	44455
#	68412
#	86297
#	105547
#	128810
#	155347
#	177755
#	196860
#	216737
#
# Disc length: 3131 seconds
#
# Revision: 1
# Processed by: cddbd v1.5.1PL0 Copyright (c) Steve Scherf et al.
# Submitted via: CDex 1.50Beta5
#
DISCID=840c390b
DTITLE=植地雅哉 - 心にきく薬奏 サブリミナル効果による不安解消
DYEAR=2002
DGENRE=
TTITLE0=In Comfort
TTITLE1=South Wind,A
TTITLE2=Take A Nap
TTITLE3=Hermit Crab,A
TTITLE4=Bathe In The Sun
TTITLE5=White Sand
TTITLE6=Ebb Tide
TTITLE7=Evening Calm,An
TTITLE8=Inlet,An
TTITLE9=Refresh
TTITLE10=Peace Of Mind
EXTD=
EXTT0=
EXTT1=
EXTT2=
EXTT3=
EXTT4=
EXTT5=
EXTT6=
EXTT7=
EXTT8=
EXTT9=
EXTT10=
PLAYORDER=
